<?xml version="1.0" encoding="UTF-8"?>
<svg height="128px" viewBox="0 0 128 128" width="128px" xmlns="http://www.w3.org/2000/svg">
    <path d="m 22.320312 68.59375 c 1.78125 6.605469 4.734376 12.65625 8.21875 18.375 c 7.933594 13 17.933594 24.128906 28.78125 34.464844 c 0.890626 0.847656 1.949219 1.566406 3.082032 2.113281 c 1.132812 0.589844 2.265625 0.589844 3.4375 0.082031 c 1.132812 -0.503906 2.148437 -1.222656 2.996094 -2.160156 c 9.210937 -9.449219 18.257812 -19.699219 25.183593 -29.722656 c 3.929688 -5.714844 7.449219 -11.726563 10.039063 -18.246094 c 2.585937 -6.480469 3.75 -19.300781 2.902344 -26.328125 c -1.417969 -11.597656 -6.058594 -15.289063 -14.519532 -22.996094 c -10.007812 -9.09375 -21.664062 -21.234375 -34.78125 -19.203125 c -21.335937 3.304688 -37.171875 25.210938 -36.820312 47.261719 c -0.054688 5.535156 0.226562 11.636719 1.480468 16.359375 z m 0 0" fill="#1a5fb4"/>
    <path d="m 20.78125 49.554688 c -0.121094 3.175781 0.445312 6.644531 1.378906 10.117187 c 1.78125 6.605469 4.734375 12.65625 8.21875 18.375 c 7.933594 13 17.933594 24.128906 28.785156 34.464844 c 0.886719 0.847656 1.945313 1.566406 3.078126 2.113281 c 1.132812 0.589844 2.265624 0.589844 3.4375 0.082031 c 1.132812 -0.503906 2.148437 -1.222656 3 -2.160156 c 9.207031 -9.453125 18.257812 -19.703125 25.179687 -29.722656 c 3.929687 -5.714844 7.449219 -11.726563 10.039063 -18.25 c 2.589843 -6.480469 3.847656 -13.164063 2.996093 -20.191407 c -1.417969 -11.597656 -6.152343 -21.421874 -14.613281 -29.128906 c -10.007812 -9.09375 -21.664062 -12.738281 -34.78125 -10.707031 c -21.335938 3.304687 -36.800781 22.949219 -36.71875 45.007813 z m 0 0" fill="#3584e4"/>
    <path d="m 63.960938 16.410156 c -1.570313 0 -2.855469 1.285156 -2.855469 2.855469 v 24.515625 l -6.546875 -6.546875 c -0.535156 -0.535156 -1.257813 -0.835937 -2.015625 -0.835937 c -0.757813 0 -1.484375 0.300781 -2.019531 0.835937 c -1.117188 1.113281 -1.117188 2.921875 0 4.035156 l 11.421874 11.421875 c 1.113282 1.113282 2.921876 1.113282 4.035157 0 l 11.421875 -11.421875 c 1.113281 -1.113281 1.113281 -2.921875 0 -4.035156 c -1.117188 -1.117187 -2.921875 -1.117187 -4.039063 0 l -6.546875 6.546875 v -24.515625 c 0 -1.570313 -1.28125 -2.855469 -2.855468 -2.855469 z m 0 0" fill="#f6f5f4"/>
    <path d="m 44.183594 79.949219 c 0.785156 0.023437 1.664062 -0.070313 2.542968 -0.257813 c 2.597657 -0.570312 4.808594 -1.753906 6.503907 -3.847656 c 1.035156 -1.277344 1.902343 -2.664062 2.648437 -4.121094 c 0.878906 -1.714844 1.613282 -3.503906 2.257813 -5.316406 c 0.78125 -2.1875 1.445312 -4.425781 1.957031 -6.6875 c 0.285156 -1.269531 0.695312 -3.800781 -0.707031 -4.234375 c -1.78125 -0.558594 -4.304688 0.683594 -6.132813 0.277344 c -3.023437 -0.660157 -6.074218 -1.085938 -9.1875 -0.980469 c -0.878906 0.035156 -1.757812 0.128906 -2.625 0.28125 c -2.515625 0.4375 -4.652344 1.597656 -6.398437 3.433594 c -2.980469 3.125 -4.1875 4.582031 -3.453125 8.832031 c 1.054687 6.074219 6.46875 12.671875 12.59375 12.621094 z m 0 0" fill="#e5a50a"/>
    <path d="m 44.136719 77.75 c 0.785156 0.023438 1.664062 -0.070312 2.542969 -0.257812 c 2.601562 -0.570313 4.808593 -1.75 6.507812 -3.847657 c 1.03125 -1.277343 1.898438 -2.664062 2.644531 -4.121093 c 0.882813 -1.714844 1.617188 -3.503907 2.257813 -5.316407 c 0.78125 -2.1875 1.445312 -4.425781 1.957031 -6.6875 c 0.285156 -1.269531 -0.035156 -2.0625 -1.433594 -2.5 c -1.78125 -0.554687 -3.574219 -1.050781 -5.402343 -1.457031 c -3.027344 -0.660156 -6.078126 -1.085938 -9.191407 -0.980469 c -0.878906 0.035157 -1.757812 0.128907 -2.625 0.28125 c -2.515625 0.4375 -4.652343 1.601563 -6.398437 3.433594 c -2.980469 3.125 -4.164063 6.855469 -3.429688 11.105469 c 1.054688 6.074218 6.445313 10.398437 12.570313 10.347656 z m 0 0" fill="#f6d32d"/>
    <path d="m 83.1875 80.101562 c -0.785156 0.023438 -1.664062 -0.074218 -2.546875 -0.261718 c -2.605469 -0.570313 -4.816406 -1.753906 -6.519531 -3.855469 c -1.035156 -1.28125 -1.902344 -2.667969 -2.652344 -4.128906 c -0.882812 -1.71875 -1.617188 -3.511719 -2.257812 -5.324219 c -0.785157 -2.195312 -1.453126 -4.4375 -1.964844 -6.703125 c -0.285156 -1.269531 0.09375 -6.046875 1.960937 -3.167969 c 1.785157 -0.554687 3.582031 -1.054687 5.414063 -1.460937 c 3.03125 -0.664063 5.566406 -0.425781 8.683594 -0.320313 c 0.882812 0.035156 1.761718 0.128906 2.628906 0.285156 c 2.523437 0.4375 4.664062 1.601563 6.414062 3.441407 c 2.984375 3.128906 4.621094 3.835937 3.886719 8.09375 c -1.058594 6.089843 -6.910156 13.449219 -13.046875 13.402343 z m 0 0" fill="#c01c28"/>
    <path d="m 83.515625 77.925781 c -0.785156 0.023438 -1.664063 -0.074219 -2.546875 -0.261719 c -2.605469 -0.570312 -4.816406 -1.753906 -6.515625 -3.855468 c -1.035156 -1.28125 -1.90625 -2.667969 -2.65625 -4.128906 c -0.878906 -1.71875 -1.617187 -3.511719 -2.257813 -5.324219 c -0.785156 -2.195313 -1.449218 -4.4375 -1.964843 -6.703125 c -0.285157 -1.269532 0.035156 -2.066406 1.441406 -2.503906 c 1.78125 -0.558594 3.578125 -1.054688 5.410156 -1.460938 c 3.035157 -0.664062 6.089844 -1.089844 9.210938 -0.984375 c 0.878906 0.035156 1.757812 0.128906 2.628906 0.285156 c 2.519531 0.4375 4.660156 1.601563 6.410156 3.441407 c 2.988281 3.128906 4.175781 6.867187 3.4375 11.125 c -1.058593 6.089843 -6.460937 10.417968 -12.597656 10.371093 z m 0 0" fill="#e01b24"/>
    <path d="m 45.40625 103.125 l 0.007812 3.921875 l 0.964844 1.179687 l 4.042969 4.261719 l -0.039063 -8.765625 s -2.796874 -2.980468 -3.242187 -3.492187 c -0.441406 -0.507813 -1.679687 -1.96875 -1.679687 -1.941407 z m 0 0" fill="#62a0ea"/>
</svg>
